<?xml version="1.0" encoding="utf-8"?>
<!-- Svg Vector Icons : http://www.onlinewebfonts.com/icon -->
<!DOCTYPE svg PUBLIC "-//W3C//DTD SVG 1.1//EN" "http://www.w3.org/Graphics/SVG/1.1/DTD/svg11.dtd">
<svg version="1.1" xmlns="http://www.w3.org/2000/svg" xmlns:xlink="http://www.w3.org/1999/xlink" fill="#FFFFFF" x="0px" y="0px" viewBox="0 0 1000 1000" enable-background="new 0 0 1000 1000" xml:space="preserve">
<metadata> Svg Vector Icons : http://www.onlinewebfonts.com/icon </metadata>
<g><g><g><path d="M604.2,748.8c-0.5,0.5-13.1,13.7-37.4,16.7c-23.2,2.9-50.9-8.7-55.1-31.1c-0.1-0.3-0.5-0.4-0.5-0.7c23.3-9.4,46.4-37.1,46.4-48.9c0-29.5-22.4-35.3-61.1-35.3c-49.2,0-61.3,6.9-61.3,35.3c0,14,23.5,39.6,46.9,48.4c-0.2,0.5-0.7,0.7-0.8,1.2c-4.3,23-31.8,34.1-54.4,31.2c-24.1-3.1-36.6-16.2-37.1-16.6c-5.7-6.3-15.4-6.9-21.7-1.1c-6.3,5.7-6.9,15.4-1.1,21.7c0.8,0.9,20.1,22,56,26.6c3.7,0.5,7.5,0.7,11.3,0.7c23.5,0,47.1-9.9,62.3-27.6c15.5,17.6,39.6,27.6,63.1,27.6c3.7,0,7.3-0.2,11-0.7c36-4.6,55.4-25.7,56.2-26.6c5.7-6.3,5.2-15.8-1.1-21.5C619.8,742.2,610,742.6,604.2,748.8z M496.6,721.7c-20.2,0-45.6-29.7-45.9-37c0-14.9,0-19.9,45.9-19.9c45.7,0,45.7,9.2,45.7,19.6C540.9,692,515.2,721.7,496.6,721.7z"/><path d="M618,692.9c4.5,0,8.1-3.7,8.1-8.1c0-4.5-3.6-8.1-8.1-8.1c-4.4,0-8.1,3.6-8.1,8.1C609.9,689.2,613.6,692.9,618,692.9z"/><path d="M597.7,732c4.4,0,8-3.7,8-8.1c0-4.5-3.6-8.1-8-8.1c-4.4,0-8.1,3.6-8.1,8.1C589.6,728.4,593.3,732,597.7,732z"/><path d="M634.2,724c0,4.4,3.6,8.1,8.1,8.1c4.4,0,8-3.7,8-8.1c0-4.5-3.6-8.1-8-8.1C637.8,715.9,634.2,719.5,634.2,724z"/><path d="M378.1,676.7c-4.4,0-8.1,3.6-8.1,8.1c0,4.3,3.7,8.1,8.1,8.1c4.4,0,8-3.7,8-8.1C386.1,680.3,382.5,676.7,378.1,676.7z"/><path d="M365.9,724c0-4.5-3.7-8.1-8-8.1c-4.5,0-8.1,3.6-8.1,8.1c0,4.4,3.6,8.1,8.1,8.1C362.2,732,365.9,728.4,365.9,724z"/><path d="M402.4,732c4.4,0,8.1-3.7,8.1-8.1c0-4.5-3.7-8.1-8.1-8.1c-4.3,0-8.1,3.6-8.1,8.1C394.3,728.4,398,732,402.4,732z"/><path d="M385.2,562.6c0.2-2.4,4.9-59.2-36-90.7C333.7,460,315.2,454,294.4,454c-25.3,0-45,9-45.9,9.3c-2.6,1.2-4.5,3.9-4.5,6.8c-0.1,2.3-1.3,56.9,37.4,85.2c17.7,12.8,38.6,19.3,62,19.3h0.1c20.8,0,35.9-5.4,36.5-5.5C382.9,568.1,384.9,565.5,385.2,562.6z M336.6,516.4c-10.7,0-19.4-8.7-19.4-19.3c0-10.8,8.7-19.4,19.4-19.4c10.7,0,19.4,8.6,19.4,19.4C356,507.7,347.3,516.4,336.6,516.4z"/><path d="M758.9,462.9c-0.8-0.4-20.6-9.3-45.9-9.3c-20.9,0-39.3,6-54.8,17.8c-40.9,31.5-36.2,88.3-35.9,90.7c0.3,3,2.2,5.5,5.1,6.6c0.6,0.2,15.8,5.5,36.6,5.5c23.5,0,44.3-6.5,62-19.4c38.6-28.2,37.5-82.8,37.4-85.1C763.3,466.7,761.5,464.1,758.9,462.9z M736.3,516.4c-10.7,0-19.5-8.7-19.5-19.3c0-10.8,8.8-19.4,19.5-19.4c10.7,0,19.4,8.6,19.4,19.4C755.7,507.7,747,516.4,736.3,516.4z"/><path d="M984.6,636.9c-24.6-7.6-48.9-12.7-72.4-15.7c17.3-60.2,15.7-132.6-18.6-221.4c57.9-105,32.8-295.8,31.6-304.2c-1.4-10.5-8.1-19.5-17.7-23.9c-9.7-4.5-20.9-3.5-29.7,2.3L688.2,199.1c-54-24.3-125.9-39-192.7-39c-67.5,0-136.1,14.2-191.1,39.3L100.9,73.5C92,68,81.1,67.4,71.5,71.9c-9.4,4.5-15.9,13.4-17.3,23.7c-1.1,7.9-24.7,188.5,39.9,304.7C63.7,489.6,62.6,561.9,80,622.2c-21,3.1-42.6,7.9-64.5,14.7c-4.1,1.3-6.3,5.5-5.1,9.6c1.3,4.1,5.7,6.4,9.6,5.1c21.9-6.8,43.6-11.4,64.8-14.4c5,14.3,11,27.9,18,40.8c-24.2,6.9-48.3,16-72.2,27.6c-3.9,1.9-5.4,6.4-3.6,10.3c1.3,2.7,4,4.3,6.9,4.3c1.1,0,2.3-0.2,3.4-0.8c24.3-11.7,48.7-20.9,73.3-27.7c6.4,10.5,13.4,20.7,21,30.4C110,732.5,88.3,746.5,67,765.6c-3.1,2.8-3.4,7.7-0.6,10.9c1.6,1.7,3.7,2.5,5.8,2.5c1.8,0,3.7-0.7,5.2-2c21.1-19,42.7-32.8,64-42.6c41.2,48.8,95.1,87.8,148.9,122.8c42.4,27.6,125.5,74,205.3,74c62.9,0,145.3-29.2,210-74.6c46.8-32.8,103.1-72.4,146.7-125c23.3,10,47.1,24.6,70.3,45.5c1.5,1.3,3.3,2,5.2,2c2.1,0,4.2-0.8,5.7-2.5c2.8-3.2,2.6-8.1-0.5-10.9c-23.3-20.9-47.3-35.8-70.9-46.3c7.1-9.3,13.7-19.1,19.9-29.3c27.1,6.8,54.1,16.6,80.8,29.5c1.1,0.5,2.2,0.8,3.4,0.8c2.8,0,5.6-1.6,6.9-4.3c1.9-3.8,0.3-8.4-3.5-10.3c-26.3-12.8-52.9-22.6-79.6-29.6c6.8-12.6,12.7-25.9,17.6-39.9c23.6,2.9,47.9,7.8,72.6,15.4c4.1,1.3,8.3-1,9.6-5.1C990.9,642.4,988.6,638.1,984.6,636.9z M833.8,379.5c-5.9,8.6-7.1,19.7-3,29.4c36.2,86.4,38.5,152.8,18.3,208.4c-109.4,0.9-192.1,39.5-203.4,48c-3.4,2.5-4.1,7.3-1.5,10.8c1.5,2,3.8,3.1,6.1,3.1c1.6,0,3.3-0.5,4.6-1.6c10-7.5,86.7-42.1,187.8-44.5c-5,10.9-10.9,21.4-17.5,31.5c-53.5-4.9-107.5,1.4-161.7,19c-2.6,0.8-4.6,1.5-6,1.9c-4.1,1.1-6.4,5.4-5.3,9.5c1.1,4.1,5.4,6.3,9.5,5.3c1.6-0.4,3.8-1.1,6.6-2c49.1-16,98.1-22.4,146.7-19.1c-5.4,7.2-11.2,14.2-17.3,21c-56.4-9-105,1.7-130.1,7.3l-5,1.1c-4.2,0.9-6.8,5-5.9,9.1c0.9,4.2,5.1,6.8,9.2,5.9l5.1-1.1c24.2-5.4,65.8-14.6,114.1-8.9c-31.8,32.3-71.4,62.1-114.8,92.5C616,844,545.9,869.5,495.6,869.5c-46.6,0-109.2-23.3-171.7-64c-43.1-28.1-84-57.1-117-90.7c51.7-7.8,96.6,2,122.3,7.7l5.2,1.1c4.1,0.9,8.2-1.7,9.1-5.9c0.9-4.2-1.7-8.2-5.9-9.1l-5.1-1.1c-26.2-5.7-78.2-17.1-137.9-5.8c-6.2-7-12.1-14.2-17.5-21.7c51.2-4.5,102.9,1.5,154.7,18.4c2.8,0.9,5,1.6,6.6,2c4,1,8.4-1.3,9.5-5.3c1.2-4.1-1.2-8.4-5.3-9.5c-1.4-0.4-3.5-1.1-6-1.9c-56.8-18.5-113.5-24.5-169.5-18.3c-6.5-10.3-12.3-21.1-17.3-32.4c104.8,0.8,185.1,37,195.4,44.7c1.3,1.1,2.9,1.6,4.6,1.6c2.3,0,4.7-1.1,6.1-3.1c2.6-3.4,1.9-8.2-1.6-10.8c-11.5-8.7-97.7-48.8-210.7-48c-19.3-55.2-18.7-122.7,13.2-209.7c3.3-9.1,2.2-19.2-3.1-27.4c-42-64.9-45-167.5-42.4-227.7l175.1,108.2c9.1,5.7,20.8,6.1,30.5,1.1c48.1-25.1,114.9-40.1,178.6-40.1c63.6,0,134.5,15.7,180.7,40.1c9.9,5.3,22,4.7,31.4-1.5l161.1-106.4C872.6,223.2,869.8,327.3,833.8,379.5z"/></g></g><g></g><g></g><g></g><g></g><g></g><g></g><g></g><g></g><g></g><g></g><g></g><g></g><g></g><g></g><g></g></g>
</svg>