<svg version="1.2" xmlns="http://www.w3.org/2000/svg" viewBox="0 0 1000 1000" width="1000" height="1000">
	<title>logo-svg</title>
	<style>
		.s0 { fill: #ffffff } 
	</style>
	<filter id="f0">
		<feFlood flood-color="#000000" flood-opacity="1" />
		<feBlend mode="normal" in2="SourceGraphic"/>
		<feComposite in2="SourceAlpha" operator="in" />
	</filter>
	<g id="Layer" filter="url(#f0)">
		<g id="Layer">
			<g id="Layer">
				<path id="Layer" fill-rule="evenodd" class="s0" d="m547.5 593.5c2.3 2.2 2.5 5.8 0.4 8.1-0.3 0.4-7.6 8.3-21.2 10.1-1.4 0.2-2.8 0.2-4.2 0.2-8.8 0-17.9-3.7-23.7-10.4-5.8 6.7-14.7 10.4-23.5 10.4q-2.2 0-4.3-0.2c-13.5-1.8-20.8-9.7-21.1-10.1-2.2-2.3-1.9-6 0.4-8.1 2.4-2.2 6.1-2 8.2 0.4 0.2 0.1 4.9 5.1 14 6.2 8.5 1.1 18.9-3.1 20.5-11.7 0-0.2 0.2-0.3 0.3-0.5-8.8-3.3-17.7-12.9-17.7-18.2 0-10.7 4.6-13.3 23.1-13.3 14.6 0 23.1 2.2 23.1 13.3 0 4.4-8.8 14.9-17.5 18.4 0 0.1 0.1 0.2 0.2 0.3 1.5 8.4 12 12.8 20.7 11.7 9.2-1.1 13.9-6.1 14.1-6.3 2.2-2.3 5.9-2.5 8.2-0.3zm-31.5-24c0-3.9 0-7.4-17.2-7.4-17.3 0-17.3 1.9-17.3 7.5 0.1 2.8 9.7 14 17.3 14 7 0 16.7-11.2 17.2-14.1z"/>
				<path id="Layer" class="s0" d="m544.5 572.7c-1.7 0-3-1.3-3-3 0-1.7 1.3-3.1 3-3.1 1.7 0 3.1 1.4 3.1 3.1 0 1.7-1.4 3-3.1 3z"/>
				<path id="Layer" class="s0" d="m536.8 587.5c-1.6 0-3-1.4-3-3.1 0-1.7 1.4-3 3-3 1.7 0 3.1 1.3 3.1 3 0 1.7-1.4 3.1-3.1 3.1z"/>
				<path id="Layer" class="s0" d="m553.7 587.5c-1.7 0-3.1-1.4-3.1-3 0-1.7 1.4-3.1 3.1-3.1 1.6 0 3 1.4 3 3.1 0 1.6-1.4 3-3 3z"/>
				<path id="Layer" class="s0" d="m454.1 572.7c-1.7 0-3-1.3-3-3 0-1.7 1.3-3.1 3-3.1 1.7 0 3 1.4 3 3.1 0 1.7-1.3 3-3 3z"/>
				<path id="Layer" class="s0" d="m446.5 587.5c-1.7 0-3.1-1.4-3.1-3 0-1.7 1.4-3.1 3.1-3.1 1.6 0 3 1.4 3 3.1 0 1.6-1.4 3-3 3z"/>
				<path id="Layer" class="s0" d="m463.3 587.5c-1.7 0-3.1-1.4-3.1-3.1 0-1.7 1.4-3 3.1-3 1.6 0 3 1.3 3 3 0 1.7-1.4 3.1-3 3.1z"/>
				<path id="Layer" fill-rule="evenodd" class="s0" d="m454.8 526.1c-0.2 0-5.9 2-13.7 2h-0.1c-8.8 0-16.7-2.4-23.3-7.2-14.6-10.7-14.2-31.3-14.1-32.1 0-1.1 0.7-2.2 1.7-2.6 0.3-0.1 7.7-3.5 17.3-3.5 7.8 0 14.8 2.3 20.6 6.7 15.4 11.9 13.7 33.3 13.6 34.2-0.1 1.1-0.9 2.1-2 2.5zm-9-27.2c0-4-3.3-7.3-7.3-7.3-4.1 0-7.3 3.3-7.3 7.3 0 4 3.2 7.3 7.3 7.3 4 0 7.3-3.3 7.3-7.3z"/>
				<path id="Layer" fill-rule="evenodd" class="s0" d="m599.3 488.6c0.1 0.9 0.5 21.5-14.1 32.1-6.6 4.8-14.5 7.3-23.3 7.3-7.9 0-13.6-2-13.8-2.1-1.1-0.4-1.8-1.3-2-2.5-0.1-0.9-1.8-22.3 13.6-34.2 5.8-4.4 12.7-6.7 20.6-6.7 9.6 0 17 3.4 17.3 3.5 1 0.5 1.7 1.5 1.7 2.6zm-2.9 10.3c0-4-3.3-7.3-7.3-7.3-4.1 0-7.3 3.3-7.3 7.3 0 4 3.2 7.3 7.3 7.3 4 0 7.3-3.3 7.3-7.3z"/>
				<path id="Layer" fill-rule="evenodd" class="s0" d="m684.6 555.3c-0.4 1.5-2 2.4-3.6 1.9-9.3-2.9-18.4-4.7-27.3-5.8q-2.8 7.9-6.7 15c10.1 2.7 20.1 6.4 30 11.2 1.5 0.7 2.1 2.4 1.4 3.9-0.5 1-1.6 1.6-2.6 1.6q-0.7 0-1.3-0.3c-10.1-4.9-20.3-8.6-30.5-11.1q-3.5 5.8-7.5 11c8.9 4 18 9.6 26.7 17.5 1.2 1 1.3 2.9 0.2 4.1-0.5 0.6-1.3 0.9-2.1 0.9-0.7 0-1.4-0.2-2-0.7-8.7-7.9-17.7-13.4-26.5-17.2-16.4 19.8-37.6 34.8-55.3 47.1-24.4 17.1-55.4 28.1-79.1 28.1-30.1 0-61.4-17.4-77.4-27.8-20.3-13.2-40.6-27.9-56.1-46.3-8 3.7-16.2 8.9-24.1 16-0.6 0.5-1.3 0.8-2 0.8-0.8 0-1.6-0.3-2.2-1-1-1.2-0.9-3 0.3-4.1 8-7.2 16.2-12.4 24.3-16.4-2.9-3.6-5.5-7.5-7.9-11.4q-13.9 3.8-27.6 10.4c-0.5 0.2-0.9 0.3-1.3 0.3-1.1 0-2.1-0.6-2.6-1.6-0.7-1.5-0.1-3.2 1.3-3.9 9-4.4 18.1-7.8 27.2-10.4q-3.9-7.3-6.7-15.4c-8 1.2-16.2 2.9-24.5 5.5-1.4 0.5-3.1-0.4-3.6-2-0.4-1.5 0.4-3.1 1.9-3.6 8.3-2.5 16.4-4.3 24.4-5.5-6.6-22.7-6.2-50 5.3-83.6-24.4-43.8-15.5-111.9-15.1-114.9 0.6-3.9 3-7.2 6.5-8.9 3.7-1.7 7.8-1.5 11.1 0.6l76.7 47.4c20.8-9.4 46.6-14.8 72-14.8 25.2 0 52.3 5.6 72.7 14.7l71.4-47.1c3.4-2.2 7.6-2.6 11.2-0.9 3.6 1.7 6.2 5.1 6.7 9 0.5 3.2 9.9 75.1-11.9 114.7 12.9 33.4 13.5 60.7 7 83.4 8.9 1.1 18 3.1 27.3 5.9 1.5 0.5 2.4 2.1 1.9 3.7zm-45.6-185.7l-60.7 40.1c-3.6 2.4-8.1 2.6-11.8 0.6-17.5-9.2-44.2-15.1-68.2-15.1-24 0-49.1 5.6-67.3 15.1-3.6 1.9-8 1.7-11.5-0.4l-66-40.8c-0.9 22.7 0.2 61.4 16 85.8 2 3.1 2.4 6.9 1.2 10.3-12 32.8-12.3 58.3-5 79.1 42.6-0.3 75.1 14.8 79.4 18.1 1.4 0.9 1.6 2.8 0.6 4-0.5 0.8-1.4 1.2-2.3 1.2-0.6 0-1.2-0.2-1.7-0.6-3.9-2.9-34.1-16.5-73.6-16.8q2.8 6.3 6.5 12.2c21.1-2.4 42.5-0.1 63.9 6.9 0.9 0.3 1.7 0.5 2.2 0.7 1.6 0.4 2.5 2 2 3.6-0.4 1.5-2.1 2.3-3.6 2q-0.9-0.3-2.4-0.8c-19.6-6.4-39.1-8.6-58.4-6.9 2.1 2.8 4.3 5.5 6.6 8.1 22.5-4.2 42.1 0.1 52 2.2l1.9 0.4c1.6 0.4 2.6 1.9 2.3 3.5-0.4 1.6-1.9 2.5-3.5 2.2l-1.9-0.4c-9.7-2.2-26.6-5.9-46.1-2.9 12.4 12.6 27.8 23.6 44.1 34.2 23.5 15.3 47.1 24.1 64.7 24.1 18.9 0 45.4-9.6 65.8-23.9 16.4-11.5 31.3-22.7 43.3-34.9-18.2-2.1-33.9 1.4-43 3.4l-1.9 0.4c-1.6 0.3-3.2-0.6-3.5-2.2-0.3-1.6 0.6-3.1 2.2-3.5l1.9-0.4c9.5-2.1 27.8-6.1 49-2.7q3.5-3.9 6.6-7.9c-18.4-1.3-36.8 1.1-55.3 7.2q-1.6 0.5-2.5 0.7c-1.6 0.4-3.2-0.4-3.6-2-0.4-1.5 0.5-3.1 2-3.6 0.5-0.1 1.3-0.4 2.3-0.7 20.4-6.6 40.7-9 60.9-7.1 2.5-3.8 4.7-7.8 6.6-11.9-38.1 0.9-67 13.9-70.8 16.8-0.5 0.4-1.1 0.6-1.7 0.6-0.9 0-1.7-0.4-2.3-1.2-1-1.3-0.7-3.1 0.6-4.1 4.2-3.2 35.4-17.7 76.6-18.1 7.6-20.9 6.8-45.9-6.9-78.5-1.5-3.7-1.1-7.8 1.2-11.1 13.5-19.7 14.6-58.9 13.1-85z"/>
			</g>
		</g>
		<g id="Layer">
		</g>
		<g id="Layer">
		</g>
		<g id="Layer">
		</g>
		<g id="Layer">
		</g>
		<g id="Layer">
		</g>
		<g id="Layer">
		</g>
		<g id="Layer">
		</g>
		<g id="Layer">
		</g>
		<g id="Layer">
		</g>
		<g id="Layer">
		</g>
		<g id="Layer">
		</g>
		<g id="Layer">
		</g>
		<g id="Layer">
		</g>
		<g id="Layer">
		</g>
		<g id="Layer">
		</g>
	</g>
	<rect width="1000" height="1000" id="Color Fill 1" style="fill: #ffffff"/>
</svg>